<svg width="640" height="640" viewBox="0 0 640 640" fill="none" xmlns="http://www.w3.org/2000/svg">
  <rect width="640" height="640" rx="48" fill="#FFFFFF"/>
  <rect x="28" y="28" width="584" height="584" rx="36" fill="#F7F7F7" stroke="#E8E8E8" stroke-width="4"/>
  <rect x="78" y="78" width="132" height="132" rx="12" fill="#151515"/>
  <rect x="110" y="110" width="68" height="68" rx="6" fill="#FFFFFF"/>
  <rect x="430" y="78" width="132" height="132" rx="12" fill="#151515"/>
  <rect x="462" y="110" width="68" height="68" rx="6" fill="#FFFFFF"/>
  <rect x="78" y="430" width="132" height="132" rx="12" fill="#151515"/>
  <rect x="110" y="462" width="68" height="68" rx="6" fill="#FFFFFF"/>
  <g fill="#151515">
    <rect x="260" y="82" width="34" height="34" rx="4"/>
    <rect x="320" y="82" width="34" height="34" rx="4"/>
    <rect x="260" y="142" width="94" height="34" rx="4"/>
    <rect x="236" y="236" width="34" height="34" rx="4"/>
    <rect x="296" y="236" width="94" height="34" rx="4"/>
    <rect x="450" y="236" width="34" height="34" rx="4"/>
    <rect x="514" y="236" width="34" height="34" rx="4"/>
    <rect x="78" y="274" width="94" height="34" rx="4"/>
    <rect x="210" y="302" width="34" height="94" rx="4"/>
    <rect x="274" y="302" width="34" height="34" rx="4"/>
    <rect x="334" y="302" width="94" height="34" rx="4"/>
    <rect x="486" y="302" width="76" height="34" rx="4"/>
    <rect x="78" y="354" width="34" height="34" rx="4"/>
    <rect x="142" y="354" width="34" height="34" rx="4"/>
    <rect x="274" y="366" width="94" height="34" rx="4"/>
    <rect x="430" y="366" width="34" height="94" rx="4"/>
    <rect x="494" y="366" width="34" height="34" rx="4"/>
    <rect x="242" y="430" width="34" height="34" rx="4"/>
    <rect x="302" y="430" width="94" height="34" rx="4"/>
    <rect x="494" y="430" width="68" height="34" rx="4"/>
    <rect x="242" y="494" width="94" height="34" rx="4"/>
    <rect x="366" y="494" width="34" height="68" rx="4"/>
    <rect x="430" y="494" width="34" height="34" rx="4"/>
    <rect x="494" y="494" width="68" height="68" rx="4"/>
  </g>
  <text x="320" y="610" text-anchor="middle" font-size="28" font-family="Arial, sans-serif" font-weight="700" fill="#666666">微信 / 支付宝 收款码占位</text>
</svg>
